<svg xmlns="http://www.w3.org/2000/svg" viewBox="0 0 800 600" width="800" height="600" role="img" aria-label="Social & Nights category">
  <defs>
    <linearGradient id="g" x1="0%" y1="0%" x2="100%" y2="100%">
      <stop offset="0%" stop-color="#0f172a"/>
      <stop offset="100%" stop-color="#7c3aed"/>
    </linearGradient>
  </defs>
  <rect width="800" height="600" fill="url(#g)"/>
  <g fill="#ffffff" opacity="0.14">
    <circle cx="140" cy="420" r="92"/>
    <circle cx="690" cy="160" r="58"/>
  </g>
  <g opacity="0.26" fill="#ffffff">
    <!-- moon -->
    <path d="M520 180a90 90 0 1 0 0 180a78 78 0 1 1 0-180z"/>
    <!-- city lights -->
    <rect x="180" y="380" width="46" height="120" rx="8"/>
    <rect x="250" y="350" width="62" height="150" rx="10"/>
    <rect x="338" y="400" width="52" height="100" rx="8"/>
    <rect x="410" y="330" width="70" height="170" rx="10"/>
    <rect x="504" y="410" width="50" height="90" rx="8"/>
  </g>
  <g fill="#fde68a" opacity="0.32">
    <!-- stars -->
    <circle cx="220" cy="140" r="6"/>
    <circle cx="300" cy="190" r="5"/>
    <circle cx="370" cy="120" r="4"/>
    <circle cx="610" cy="120" r="5"/>
    <circle cx="650" cy="260" r="4"/>
    <circle cx="560" cy="260" r="3"/>
  </g>
</svg>
